<svg xmlns="http://www.w3.org/2000/svg" width="512" height="512" viewBox="0 0 512 512">
  <defs>
    <linearGradient id="g" x1="88" y1="424" x2="424" y2="88" gradientUnits="userSpaceOnUse">
      <stop stop-color="#0b5f6d" offset="0"/>
      <stop stop-color="#0f7280" offset="1"/>
    </linearGradient>
  </defs>
  <g fill="none" stroke="url(#g)" stroke-width="56" stroke-linecap="round" stroke-linejoin="round">
    <circle cx="256" cy="256" r="196"/>
    <path d="M252 270 410 112"/>
    <path d="M386 112h34v34"/>
  </g>
  <g fill="url(#g)">
    <rect x="152" y="168" width="64" height="220" rx="10"/>
    <rect x="200" y="168" width="120" height="56" rx="10"/>
    <rect x="200" y="242" width="108" height="56" rx="10"/>
    <rect x="200" y="316" width="120" height="56" rx="10"/>
    <rect x="272" y="168" width="64" height="220" rx="10"/>
    <path d="M332 256 430 168c10-9 26-8 35 2 9 10 8 26-2 35l-98 88z"/>
    <path d="M332 256 430 344c10 9 11 25 2 35-9 10-25 11-35 2l-98-88z"/>
  </g>
</svg>

